<svg height="512" viewBox="0 0 64 64" width="512" xmlns="http://www.w3.org/2000/svg"><path d="m61.9 51.553-5.9-11.789v-31.764a3 3 0 0 0 -3-3h-42a3 3 0 0 0 -3 3v31.764l-5.895 11.789a1 1 0 0 0 -.105.447v5a2 2 0 0 0 2 2h56a2 2 0 0 0 2-2v-5a1 1 0 0 0 -.1-.447zm-32.9 1.447h6v1h-6zm-24.382-2 5-10h44.764l5 10zm5.382-43a1 1 0 0 1 1-1h42a1 1 0 0 1 1 1v31h-44zm-6 49v-4h23v1a2 2 0 0 0 2 2h6a2 2 0 0 0 2-2v-1h23v4z"/><path d="m10 47h2v2h-2z"/><path d="m14 47h2v2h-2z"/><path d="m18 47h28v2h-28z"/><path d="m48 47h2v2h-2z"/><path d="m52 47h2v2h-2z"/><path d="m15 43h2v2h-2z"/><path d="m11 43h2v2h-2z"/><path d="m19 43h2v2h-2z"/><path d="m23 43h2v2h-2z"/><path d="m27 43h2v2h-2z"/><path d="m31 43h2v2h-2z"/><path d="m35 43h2v2h-2z"/><path d="m39 43h2v2h-2z"/><path d="m43 43h2v2h-2z"/><path d="m47 43h2v2h-2z"/><path d="m51 43h2v2h-2z"/><path d="m25 26.071v-1.1a4.977 4.977 0 0 0 2-3.971v-1a1 1 0 0 0 1-1v-2a6 6 0 0 0 -12 0v2a1 1 0 0 0 1 1v1a4.977 4.977 0 0 0 2 3.974v1.1a7.011 7.011 0 0 0 -6 6.926v1a1 1 0 0 0 1 1h16a1 1 0 0 0 1-1v-1a7.011 7.011 0 0 0 -6-6.929zm-7-9.071a4 4 0 0 1 8 0v1h-.171a1 1 0 0 1 -.708-.293l-1.414-1.414a1 1 0 0 0 -1.414 0l-.829.829a3.02 3.02 0 0 1 -2.121.878h-1.343zm1.343 3a4.966 4.966 0 0 0 3.535-1.464l.122-.122.707.707a2.96 2.96 0 0 0 1.293.749v1.13a3 3 0 0 1 -6 0v-1zm2.657 6a5 5 0 0 0 1-.1v.687l-1 1-1-1v-.687a5 5 0 0 0 1 .1zm-7 7a4.991 4.991 0 0 1 4.624-4.962l1.669 1.669a1 1 0 0 0 1.414 0l1.669-1.669a4.991 4.991 0 0 1 4.624 4.962z"/><path d="m52 25a4.985 4.985 0 0 0 -3-4.58v-2.42a7.008 7.008 0 0 0 -7-7 7.008 7.008 0 0 0 -7 7v2.422a4.984 4.984 0 0 0 -.814 8.7 6.946 6.946 0 0 0 -1.186 3.878v1a1 1 0 0 0 1 1h16a1 1 0 0 0 1-1v-1a6.946 6.946 0 0 0 -1.186-3.882 4.978 4.978 0 0 0 2.186-4.118zm-15-7a5.009 5.009 0 0 1 5-5 5.006 5.006 0 0 1 5 5v1a1 1 0 0 0 -1-1h-.172a1.009 1.009 0 0 1 -.707-.293l-1.414-1.414a1.029 1.029 0 0 0 -1.414 0l-.828.829a2.983 2.983 0 0 1 -2.122.878h-1.343a1 1 0 0 0 -1 1zm6 8.586-1 1-1-1v-.686a5 5 0 0 0 2 0zm-1-2.586a3 3 0 0 1 -3-3v-1h.343a4.968 4.968 0 0 0 3.536-1.464l.121-.121.707.706a2.981 2.981 0 0 0 1.293.764v1.115a3 3 0 0 1 -3 3zm-5.729-1.907a2.682 2.682 0 0 1 .831-.086 4.991 4.991 0 0 0 1.898 2.967v1.1a6.977 6.977 0 0 0 -3.46 1.542 2.992 2.992 0 0 1 .731-5.52zm-1.271 10.907a4.991 4.991 0 0 1 4.624-4.962l1.669 1.669a1 1 0 0 0 1.414 0l1.669-1.669a4.991 4.991 0 0 1 4.624 4.962zm13.46-5.387a6.977 6.977 0 0 0 -3.46-1.542v-1.1a4.992 4.992 0 0 0 1.9-2.96 2.745 2.745 0 0 1 .858.085 2.992 2.992 0 0 1 .706 5.514z"/></svg>